<svg width="183" height="63" viewBox="0 0 183 63" fill="none" xmlns="http://www.w3.org/2000/svg">
<rect x="160" y="40" width="13" height="18" fill="#441667"/>
<rect x="159.125" y="39.125" width="12.75" height="17.75" fill="white" stroke="#441667" stroke-width="0.25"/>
<line x1="162" y1="46.875" x2="169" y2="46.875" stroke="#441667" stroke-width="0.25"/>
<line x1="162" y1="43.875" x2="169" y2="43.875" stroke="#6DCFF9" stroke-width="0.25"/>
<line x1="162" y1="51.875" x2="169" y2="51.875" stroke="#441667" stroke-width="0.25"/>
<line x1="162" y1="48.875" x2="169" y2="48.875" stroke="#6DCFF9" stroke-width="0.25"/>
<path d="M30.832 6.344V29H23.76V17.704L20.272 29H14.192L10.704 17.704V29H3.6V6.344H12.304L17.296 19.944L22.16 6.344H30.832ZM37.6215 9.512C36.3842 9.512 35.3922 9.18133 34.6455 8.52C33.8988 7.85867 33.5255 7.02667 33.5255 6.024C33.5255 5 33.8988 4.15733 34.6455 3.496C35.3922 2.81333 36.3842 2.472 37.6215 2.472C38.8375 2.472 39.8188 2.81333 40.5655 3.496C41.3122 4.15733 41.6855 5 41.6855 6.024C41.6855 7.02667 41.3122 7.85867 40.5655 8.52C39.8188 9.18133 38.8375 9.512 37.6215 9.512ZM41.1415 10.952V29H34.0375V10.952H41.1415ZM56.99 10.824C59.0593 10.824 60.67 11.5173 61.822 12.904C62.9953 14.2907 63.582 16.168 63.582 18.536V29H56.51V19.432C56.51 18.5787 56.2753 17.9067 55.806 17.416C55.358 16.904 54.75 16.648 53.982 16.648C53.1927 16.648 52.574 16.904 52.126 17.416C51.678 17.9067 51.454 18.5787 51.454 19.432V29H44.35V10.952H51.454V13.704C52.0087 12.8507 52.7447 12.1573 53.662 11.624C54.6007 11.0907 55.71 10.824 56.99 10.824ZM65.7025 19.976C65.7025 18.0773 66.0225 16.4347 66.6625 15.048C67.3238 13.64 68.2198 12.5733 69.3505 11.848C70.4812 11.1013 71.7505 10.728 73.1585 10.728C74.3318 10.728 75.3345 10.9733 76.1665 11.464C77.0198 11.9333 77.6705 12.584 78.1185 13.416V5.32H85.2225V29H78.1185V26.536C77.6705 27.368 77.0198 28.0293 76.1665 28.52C75.3345 28.9893 74.3318 29.224 73.1585 29.224C71.7505 29.224 70.4812 28.8613 69.3505 28.136C68.2198 27.3893 67.3238 26.3227 66.6625 24.936C66.0225 23.528 65.7025 21.8747 65.7025 19.976ZM78.1505 19.976C78.1505 19.016 77.9052 18.2693 77.4145 17.736C76.9238 17.2027 76.2945 16.936 75.5265 16.936C74.7585 16.936 74.1292 17.2027 73.6385 17.736C73.1478 18.2693 72.9025 19.016 72.9025 19.976C72.9025 20.936 73.1478 21.6827 73.6385 22.216C74.1292 22.7493 74.7585 23.016 75.5265 23.016C76.2945 23.016 76.9238 22.7493 77.4145 22.216C77.9052 21.6827 78.1505 20.936 78.1505 19.976ZM115.61 6.344L107.482 22.12V29H100.378V22.12L92.25 6.344H100.378L103.994 14.376L107.61 6.344H115.61ZM125.801 29.224C123.988 29.224 122.356 28.8507 120.905 28.104C119.454 27.3573 118.313 26.2907 117.481 24.904C116.67 23.496 116.265 21.8533 116.265 19.976C116.265 18.0987 116.67 16.4667 117.481 15.08C118.313 13.672 119.454 12.5947 120.905 11.848C122.356 11.1013 123.988 10.728 125.801 10.728C127.614 10.728 129.246 11.1013 130.697 11.848C132.148 12.5947 133.278 13.672 134.089 15.08C134.921 16.4667 135.337 18.0987 135.337 19.976C135.337 21.8533 134.921 23.496 134.089 24.904C133.278 26.2907 132.148 27.3573 130.697 28.104C129.246 28.8507 127.614 29.224 125.801 29.224ZM125.801 23.08C126.462 23.08 127.017 22.824 127.465 22.312C127.913 21.7787 128.137 21 128.137 19.976C128.137 18.952 127.913 18.184 127.465 17.672C127.017 17.1387 126.462 16.872 125.801 16.872C125.14 16.872 124.585 17.1387 124.137 17.672C123.689 18.184 123.465 18.952 123.465 19.976C123.465 21 123.678 21.7787 124.105 22.312C124.553 22.824 125.118 23.08 125.801 23.08ZM156.673 10.952V29H149.569V26.248C149.014 27.1013 148.267 27.7947 147.329 28.328C146.411 28.8613 145.313 29.128 144.033 29.128C141.963 29.128 140.342 28.4347 139.169 27.048C138.017 25.6613 137.441 23.784 137.441 21.416V10.952H144.513V20.52C144.513 21.3733 144.737 22.056 145.185 22.568C145.654 23.0587 146.273 23.304 147.041 23.304C147.83 23.304 148.449 23.0587 148.897 22.568C149.345 22.056 149.569 21.3733 149.569 20.52V10.952H156.673ZM166.985 14.28C167.711 13.2347 168.596 12.4027 169.641 11.784C170.687 11.144 171.775 10.824 172.905 10.824V18.408H170.889C169.545 18.408 168.553 18.6427 167.913 19.112C167.295 19.5813 166.985 20.4133 166.985 21.608V29H159.881V10.952H166.985V14.28ZM18.768 47.384C20.1333 47.704 21.1893 48.3653 21.936 49.368C22.704 50.3493 23.088 51.4907 23.088 52.792C23.088 54.776 22.4267 56.312 21.104 57.4C19.8027 58.4667 17.9253 59 15.472 59H3.6V36.344H15.152C17.456 36.344 19.2693 36.8453 20.592 37.848C21.9147 38.8507 22.576 40.312 22.576 42.232C22.576 43.5547 22.224 44.6747 21.52 45.592C20.8373 46.488 19.92 47.0853 18.768 47.384ZM10.704 45.176H13.456C14.096 45.176 14.5653 45.048 14.864 44.792C15.184 44.536 15.344 44.1413 15.344 43.608C15.344 43.0533 15.184 42.648 14.864 42.392C14.5653 42.1147 14.096 41.976 13.456 41.976H10.704V45.176ZM13.936 53.304C14.576 53.304 15.0453 53.1867 15.344 52.952C15.664 52.696 15.824 52.2907 15.824 51.736C15.824 50.648 15.1947 50.104 13.936 50.104H10.704V53.304H13.936ZM44.579 40.952V59H37.475V56.248C36.9203 57.1013 36.1737 57.7947 35.235 58.328C34.3177 58.8613 33.219 59.128 31.939 59.128C29.8697 59.128 28.2483 58.4347 27.075 57.048C25.923 55.6613 25.347 53.784 25.347 51.416V40.952H32.419V50.52C32.419 51.3733 32.643 52.056 33.091 52.568C33.5603 53.0587 34.179 53.304 34.947 53.304C35.7363 53.304 36.355 53.0587 36.803 52.568C37.251 52.056 37.475 51.3733 37.475 50.52V40.952H44.579ZM55.8195 59.224C54.1128 59.224 52.5982 58.9467 51.2755 58.392C49.9742 57.8373 48.9395 57.0693 48.1715 56.088C47.4035 55.1067 46.9662 53.9973 46.8595 52.76H53.6755C53.7608 53.2933 53.9848 53.688 54.3475 53.944C54.7315 54.2 55.2115 54.328 55.7875 54.328C56.1502 54.328 56.4382 54.2533 56.6515 54.104C56.8648 53.9333 56.9715 53.7307 56.9715 53.496C56.9715 53.0907 56.7475 52.8027 56.2995 52.632C55.8515 52.4613 55.0942 52.2693 54.0275 52.056C52.7262 51.8 51.6488 51.5227 50.7955 51.224C49.9635 50.9253 49.2275 50.4133 48.5875 49.688C47.9688 48.9627 47.6595 47.96 47.6595 46.68C47.6595 45.5707 47.9475 44.568 48.5235 43.672C49.1208 42.7547 49.9955 42.04 51.1475 41.528C52.2995 40.9947 53.6968 40.728 55.3395 40.728C57.7715 40.728 59.6702 41.3253 61.0355 42.52C62.4222 43.7147 63.2542 45.272 63.5315 47.192H57.2275C57.1208 46.7013 56.8968 46.328 56.5555 46.072C56.2142 45.7947 55.7555 45.656 55.1795 45.656C54.8168 45.656 54.5395 45.7307 54.3475 45.88C54.1555 46.008 54.0595 46.2107 54.0595 46.488C54.0595 46.8507 54.2835 47.128 54.7315 47.32C55.1795 47.4907 55.8942 47.672 56.8755 47.864C58.1768 48.12 59.2755 48.408 60.1715 48.728C61.0675 49.048 61.8462 49.6027 62.5075 50.392C63.1688 51.16 63.4995 52.2267 63.4995 53.592C63.4995 54.6587 63.1902 55.6187 62.5715 56.472C61.9528 57.3253 61.0568 57.9973 59.8835 58.488C58.7315 58.9787 57.3768 59.224 55.8195 59.224ZM69.9028 39.512C68.6654 39.512 67.6734 39.1813 66.9268 38.52C66.1801 37.8587 65.8068 37.0267 65.8068 36.024C65.8068 35 66.1801 34.1573 66.9268 33.496C67.6734 32.8133 68.6654 32.472 69.9028 32.472C71.1188 32.472 72.1001 32.8133 72.8468 33.496C73.5934 34.1573 73.9668 35 73.9668 36.024C73.9668 37.0267 73.5934 37.8587 72.8468 38.52C72.1001 39.1813 71.1188 39.512 69.9028 39.512ZM73.4228 40.952V59H66.3188V40.952H73.4228ZM89.2713 40.824C91.3406 40.824 92.9513 41.5173 94.1033 42.904C95.2766 44.2907 95.8633 46.168 95.8633 48.536V59H88.7913V49.432C88.7913 48.5787 88.5566 47.9067 88.0873 47.416C87.6393 46.904 87.0313 46.648 86.2633 46.648C85.4739 46.648 84.8553 46.904 84.4073 47.416C83.9593 47.9067 83.7353 48.5787 83.7353 49.432V59H76.6313V40.952H83.7353V43.704C84.2899 42.8507 85.0259 42.1573 85.9433 41.624C86.8819 41.0907 87.9913 40.824 89.2713 40.824ZM116.416 49.816C116.416 50.3067 116.384 50.776 116.32 51.224H104.896C105.002 52.7813 105.653 53.56 106.848 53.56C107.616 53.56 108.17 53.208 108.512 52.504H116.032C115.776 53.784 115.232 54.936 114.4 55.96C113.589 56.9627 112.554 57.7627 111.296 58.36C110.058 58.936 108.693 59.224 107.2 59.224C105.408 59.224 103.808 58.8507 102.4 58.104C101.013 57.3573 99.9251 56.2907 99.1358 54.904C98.3678 53.496 97.9838 51.8533 97.9838 49.976C97.9838 48.0987 98.3678 46.4667 99.1358 45.08C99.9251 43.672 101.013 42.5947 102.4 41.848C103.808 41.1013 105.408 40.728 107.2 40.728C108.992 40.728 110.581 41.1013 111.968 41.848C113.376 42.5733 114.464 43.6187 115.232 44.984C116.021 46.3493 116.416 47.96 116.416 49.816ZM109.216 48.12C109.216 47.5227 109.024 47.0747 108.64 46.776C108.256 46.456 107.776 46.296 107.2 46.296C105.941 46.296 105.205 46.904 104.992 48.12H109.216ZM126.695 59.224C124.988 59.224 123.473 58.9467 122.151 58.392C120.849 57.8373 119.815 57.0693 119.047 56.088C118.279 55.1067 117.841 53.9973 117.735 52.76H124.551C124.636 53.2933 124.86 53.688 125.223 53.944C125.607 54.2 126.087 54.328 126.663 54.328C127.025 54.328 127.313 54.2533 127.527 54.104C127.74 53.9333 127.847 53.7307 127.847 53.496C127.847 53.0907 127.623 52.8027 127.175 52.632C126.727 52.4613 125.969 52.2693 124.903 52.056C123.601 51.8 122.524 51.5227 121.671 51.224C120.839 50.9253 120.103 50.4133 119.463 49.688C118.844 48.9627 118.535 47.96 118.535 46.68C118.535 45.5707 118.823 44.568 119.399 43.672C119.996 42.7547 120.871 42.04 122.023 41.528C123.175 40.9947 124.572 40.728 126.215 40.728C128.647 40.728 130.545 41.3253 131.911 42.52C133.297 43.7147 134.129 45.272 134.407 47.192H128.103C127.996 46.7013 127.772 46.328 127.431 46.072C127.089 45.7947 126.631 45.656 126.055 45.656C125.692 45.656 125.415 45.7307 125.223 45.88C125.031 46.008 124.935 46.2107 124.935 46.488C124.935 46.8507 125.159 47.128 125.607 47.32C126.055 47.4907 126.769 47.672 127.751 47.864C129.052 48.12 130.151 48.408 131.047 48.728C131.943 49.048 132.721 49.6027 133.383 50.392C134.044 51.16 134.375 52.2267 134.375 53.592C134.375 54.6587 134.065 55.6187 133.447 56.472C132.828 57.3253 131.932 57.9973 130.759 58.488C129.607 58.9787 128.252 59.224 126.695 59.224ZM145.226 59.224C143.519 59.224 142.004 58.9467 140.682 58.392C139.38 57.8373 138.346 57.0693 137.578 56.088C136.81 55.1067 136.372 53.9973 136.266 52.76H143.082C143.167 53.2933 143.391 53.688 143.754 53.944C144.138 54.2 144.618 54.328 145.194 54.328C145.556 54.328 145.844 54.2533 146.058 54.104C146.271 53.9333 146.378 53.7307 146.378 53.496C146.378 53.0907 146.154 52.8027 145.706 52.632C145.258 52.4613 144.5 52.2693 143.434 52.056C142.132 51.8 141.055 51.5227 140.202 51.224C139.37 50.9253 138.634 50.4133 137.994 49.688C137.375 48.9627 137.066 47.96 137.066 46.68C137.066 45.5707 137.354 44.568 137.93 43.672C138.527 42.7547 139.402 42.04 140.554 41.528C141.706 40.9947 143.103 40.728 144.746 40.728C147.178 40.728 149.076 41.3253 150.442 42.52C151.828 43.7147 152.66 45.272 152.938 47.192H146.634C146.527 46.7013 146.303 46.328 145.962 46.072C145.62 45.7947 145.162 45.656 144.586 45.656C144.223 45.656 143.946 45.7307 143.754 45.88C143.562 46.008 143.466 46.2107 143.466 46.488C143.466 46.8507 143.69 47.128 144.138 47.32C144.586 47.4907 145.3 47.672 146.282 47.864C147.583 48.12 148.682 48.408 149.578 48.728C150.474 49.048 151.252 49.6027 151.914 50.392C152.575 51.16 152.906 52.2267 152.906 53.592C152.906 54.6587 152.596 55.6187 151.978 56.472C151.359 57.3253 150.463 57.9973 149.29 58.488C148.138 58.9787 146.783 59.224 145.226 59.224Z" fill="#441667"/>
<path d="M28.832 4.344V27H21.76V15.704L18.272 27H12.192L8.704 15.704V27H1.6V4.344H10.304L15.296 17.944L20.16 4.344H28.832ZM35.6215 7.512C34.3842 7.512 33.3922 7.18133 32.6455 6.52C31.8988 5.85867 31.5255 5.02667 31.5255 4.024C31.5255 3 31.8988 2.15733 32.6455 1.496C33.3922 0.813332 34.3842 0.471998 35.6215 0.471998C36.8375 0.471998 37.8188 0.813332 38.5655 1.496C39.3122 2.15733 39.6855 3 39.6855 4.024C39.6855 5.02667 39.3122 5.85867 38.5655 6.52C37.8188 7.18133 36.8375 7.512 35.6215 7.512ZM39.1415 8.952V27H32.0375V8.952H39.1415ZM54.99 8.824C57.0593 8.824 58.67 9.51733 59.822 10.904C60.9953 12.2907 61.582 14.168 61.582 16.536V27H54.51V17.432C54.51 16.5787 54.2753 15.9067 53.806 15.416C53.358 14.904 52.75 14.648 51.982 14.648C51.1927 14.648 50.574 14.904 50.126 15.416C49.678 15.9067 49.454 16.5787 49.454 17.432V27H42.35V8.952H49.454V11.704C50.0087 10.8507 50.7447 10.1573 51.662 9.624C52.6007 9.09067 53.71 8.824 54.99 8.824ZM63.7025 17.976C63.7025 16.0773 64.0225 14.4347 64.6625 13.048C65.3238 11.64 66.2198 10.5733 67.3505 9.848C68.4812 9.10133 69.7505 8.728 71.1585 8.728C72.3318 8.728 73.3345 8.97333 74.1665 9.464C75.0198 9.93333 75.6705 10.584 76.1185 11.416V3.32H83.2225V27H76.1185V24.536C75.6705 25.368 75.0198 26.0293 74.1665 26.52C73.3345 26.9893 72.3318 27.224 71.1585 27.224C69.7505 27.224 68.4812 26.8613 67.3505 26.136C66.2198 25.3893 65.3238 24.3227 64.6625 22.936C64.0225 21.528 63.7025 19.8747 63.7025 17.976ZM76.1505 17.976C76.1505 17.016 75.9052 16.2693 75.4145 15.736C74.9238 15.2027 74.2945 14.936 73.5265 14.936C72.7585 14.936 72.1292 15.2027 71.6385 15.736C71.1478 16.2693 70.9025 17.016 70.9025 17.976C70.9025 18.936 71.1478 19.6827 71.6385 20.216C72.1292 20.7493 72.7585 21.016 73.5265 21.016C74.2945 21.016 74.9238 20.7493 75.4145 20.216C75.9052 19.6827 76.1505 18.936 76.1505 17.976ZM113.61 4.344L105.482 20.12V27H98.378V20.12L90.25 4.344H98.378L101.994 12.376L105.61 4.344H113.61ZM123.801 27.224C121.988 27.224 120.356 26.8507 118.905 26.104C117.454 25.3573 116.313 24.2907 115.481 22.904C114.67 21.496 114.265 19.8533 114.265 17.976C114.265 16.0987 114.67 14.4667 115.481 13.08C116.313 11.672 117.454 10.5947 118.905 9.848C120.356 9.10133 121.988 8.728 123.801 8.728C125.614 8.728 127.246 9.10133 128.697 9.848C130.148 10.5947 131.278 11.672 132.089 13.08C132.921 14.4667 133.337 16.0987 133.337 17.976C133.337 19.8533 132.921 21.496 132.089 22.904C131.278 24.2907 130.148 25.3573 128.697 26.104C127.246 26.8507 125.614 27.224 123.801 27.224ZM123.801 21.08C124.462 21.08 125.017 20.824 125.465 20.312C125.913 19.7787 126.137 19 126.137 17.976C126.137 16.952 125.913 16.184 125.465 15.672C125.017 15.1387 124.462 14.872 123.801 14.872C123.14 14.872 122.585 15.1387 122.137 15.672C121.689 16.184 121.465 16.952 121.465 17.976C121.465 19 121.678 19.7787 122.105 20.312C122.553 20.824 123.118 21.08 123.801 21.08ZM154.673 8.952V27H147.569V24.248C147.014 25.1013 146.267 25.7947 145.329 26.328C144.411 26.8613 143.313 27.128 142.033 27.128C139.963 27.128 138.342 26.4347 137.169 25.048C136.017 23.6613 135.441 21.784 135.441 19.416V8.952H142.513V18.52C142.513 19.3733 142.737 20.056 143.185 20.568C143.654 21.0587 144.273 21.304 145.041 21.304C145.83 21.304 146.449 21.0587 146.897 20.568C147.345 20.056 147.569 19.3733 147.569 18.52V8.952H154.673ZM164.985 12.28C165.711 11.2347 166.596 10.4027 167.641 9.784C168.687 9.144 169.775 8.824 170.905 8.824V16.408H168.889C167.545 16.408 166.553 16.6427 165.913 17.112C165.295 17.5813 164.985 18.4133 164.985 19.608V27H157.881V8.952H164.985V12.28ZM16.768 45.384C18.1333 45.704 19.1893 46.3653 19.936 47.368C20.704 48.3493 21.088 49.4907 21.088 50.792C21.088 52.776 20.4267 54.312 19.104 55.4C17.8027 56.4667 15.9253 57 13.472 57H1.6V34.344H13.152C15.456 34.344 17.2693 34.8453 18.592 35.848C19.9147 36.8507 20.576 38.312 20.576 40.232C20.576 41.5547 20.224 42.6747 19.52 43.592C18.8373 44.488 17.92 45.0853 16.768 45.384ZM8.704 43.176H11.456C12.096 43.176 12.5653 43.048 12.864 42.792C13.184 42.536 13.344 42.1413 13.344 41.608C13.344 41.0533 13.184 40.648 12.864 40.392C12.5653 40.1147 12.096 39.976 11.456 39.976H8.704V43.176ZM11.936 51.304C12.576 51.304 13.0453 51.1867 13.344 50.952C13.664 50.696 13.824 50.2907 13.824 49.736C13.824 48.648 13.1947 48.104 11.936 48.104H8.704V51.304H11.936ZM42.579 38.952V57H35.475V54.248C34.9203 55.1013 34.1737 55.7947 33.235 56.328C32.3177 56.8613 31.219 57.128 29.939 57.128C27.8697 57.128 26.2483 56.4347 25.075 55.048C23.923 53.6613 23.347 51.784 23.347 49.416V38.952H30.419V48.52C30.419 49.3733 30.643 50.056 31.091 50.568C31.5603 51.0587 32.179 51.304 32.947 51.304C33.7363 51.304 34.355 51.0587 34.803 50.568C35.251 50.056 35.475 49.3733 35.475 48.52V38.952H42.579ZM53.8195 57.224C52.1128 57.224 50.5982 56.9467 49.2755 56.392C47.9742 55.8373 46.9395 55.0693 46.1715 54.088C45.4035 53.1067 44.9662 51.9973 44.8595 50.76H51.6755C51.7608 51.2933 51.9848 51.688 52.3475 51.944C52.7315 52.2 53.2115 52.328 53.7875 52.328C54.1502 52.328 54.4382 52.2533 54.6515 52.104C54.8648 51.9333 54.9715 51.7307 54.9715 51.496C54.9715 51.0907 54.7475 50.8027 54.2995 50.632C53.8515 50.4613 53.0942 50.2693 52.0275 50.056C50.7262 49.8 49.6488 49.5227 48.7955 49.224C47.9635 48.9253 47.2275 48.4133 46.5875 47.688C45.9688 46.9627 45.6595 45.96 45.6595 44.68C45.6595 43.5707 45.9475 42.568 46.5235 41.672C47.1208 40.7547 47.9955 40.04 49.1475 39.528C50.2995 38.9947 51.6968 38.728 53.3395 38.728C55.7715 38.728 57.6702 39.3253 59.0355 40.52C60.4222 41.7147 61.2542 43.272 61.5315 45.192H55.2275C55.1208 44.7013 54.8968 44.328 54.5555 44.072C54.2142 43.7947 53.7555 43.656 53.1795 43.656C52.8168 43.656 52.5395 43.7307 52.3475 43.88C52.1555 44.008 52.0595 44.2107 52.0595 44.488C52.0595 44.8507 52.2835 45.128 52.7315 45.32C53.1795 45.4907 53.8942 45.672 54.8755 45.864C56.1768 46.12 57.2755 46.408 58.1715 46.728C59.0675 47.048 59.8462 47.6027 60.5075 48.392C61.1688 49.16 61.4995 50.2267 61.4995 51.592C61.4995 52.6587 61.1902 53.6187 60.5715 54.472C59.9528 55.3253 59.0568 55.9973 57.8835 56.488C56.7315 56.9787 55.3768 57.224 53.8195 57.224ZM67.9028 37.512C66.6654 37.512 65.6734 37.1813 64.9268 36.52C64.1801 35.8587 63.8068 35.0267 63.8068 34.024C63.8068 33 64.1801 32.1573 64.9268 31.496C65.6734 30.8133 66.6654 30.472 67.9028 30.472C69.1188 30.472 70.1001 30.8133 70.8468 31.496C71.5934 32.1573 71.9668 33 71.9668 34.024C71.9668 35.0267 71.5934 35.8587 70.8468 36.52C70.1001 37.1813 69.1188 37.512 67.9028 37.512ZM71.4228 38.952V57H64.3188V38.952H71.4228ZM87.2713 38.824C89.3406 38.824 90.9513 39.5173 92.1033 40.904C93.2766 42.2907 93.8633 44.168 93.8633 46.536V57H86.7913V47.432C86.7913 46.5787 86.5566 45.9067 86.0873 45.416C85.6393 44.904 85.0313 44.648 84.2633 44.648C83.4739 44.648 82.8553 44.904 82.4073 45.416C81.9593 45.9067 81.7353 46.5787 81.7353 47.432V57H74.6313V38.952H81.7353V41.704C82.2899 40.8507 83.0259 40.1573 83.9433 39.624C84.8819 39.0907 85.9913 38.824 87.2713 38.824ZM114.416 47.816C114.416 48.3067 114.384 48.776 114.32 49.224H102.896C103.002 50.7813 103.653 51.56 104.848 51.56C105.616 51.56 106.17 51.208 106.512 50.504H114.032C113.776 51.784 113.232 52.936 112.4 53.96C111.589 54.9627 110.554 55.7627 109.296 56.36C108.058 56.936 106.693 57.224 105.2 57.224C103.408 57.224 101.808 56.8507 100.4 56.104C99.0131 55.3573 97.9251 54.2907 97.1358 52.904C96.3678 51.496 95.9838 49.8533 95.9838 47.976C95.9838 46.0987 96.3678 44.4667 97.1358 43.08C97.9251 41.672 99.0131 40.5947 100.4 39.848C101.808 39.1013 103.408 38.728 105.2 38.728C106.992 38.728 108.581 39.1013 109.968 39.848C111.376 40.5733 112.464 41.6187 113.232 42.984C114.021 44.3493 114.416 45.96 114.416 47.816ZM107.216 46.12C107.216 45.5227 107.024 45.0747 106.64 44.776C106.256 44.456 105.776 44.296 105.2 44.296C103.941 44.296 103.205 44.904 102.992 46.12H107.216ZM124.695 57.224C122.988 57.224 121.473 56.9467 120.151 56.392C118.849 55.8373 117.815 55.0693 117.047 54.088C116.279 53.1067 115.841 51.9973 115.735 50.76H122.551C122.636 51.2933 122.86 51.688 123.223 51.944C123.607 52.2 124.087 52.328 124.663 52.328C125.025 52.328 125.313 52.2533 125.527 52.104C125.74 51.9333 125.847 51.7307 125.847 51.496C125.847 51.0907 125.623 50.8027 125.175 50.632C124.727 50.4613 123.969 50.2693 122.903 50.056C121.601 49.8 120.524 49.5227 119.671 49.224C118.839 48.9253 118.103 48.4133 117.463 47.688C116.844 46.9627 116.535 45.96 116.535 44.68C116.535 43.5707 116.823 42.568 117.399 41.672C117.996 40.7547 118.871 40.04 120.023 39.528C121.175 38.9947 122.572 38.728 124.215 38.728C126.647 38.728 128.545 39.3253 129.911 40.52C131.297 41.7147 132.129 43.272 132.407 45.192H126.103C125.996 44.7013 125.772 44.328 125.431 44.072C125.089 43.7947 124.631 43.656 124.055 43.656C123.692 43.656 123.415 43.7307 123.223 43.88C123.031 44.008 122.935 44.2107 122.935 44.488C122.935 44.8507 123.159 45.128 123.607 45.32C124.055 45.4907 124.769 45.672 125.751 45.864C127.052 46.12 128.151 46.408 129.047 46.728C129.943 47.048 130.721 47.6027 131.383 48.392C132.044 49.16 132.375 50.2267 132.375 51.592C132.375 52.6587 132.065 53.6187 131.447 54.472C130.828 55.3253 129.932 55.9973 128.759 56.488C127.607 56.9787 126.252 57.224 124.695 57.224ZM143.226 57.224C141.519 57.224 140.004 56.9467 138.682 56.392C137.38 55.8373 136.346 55.0693 135.578 54.088C134.81 53.1067 134.372 51.9973 134.266 50.76H141.082C141.167 51.2933 141.391 51.688 141.754 51.944C142.138 52.2 142.618 52.328 143.194 52.328C143.556 52.328 143.844 52.2533 144.058 52.104C144.271 51.9333 144.378 51.7307 144.378 51.496C144.378 51.0907 144.154 50.8027 143.706 50.632C143.258 50.4613 142.5 50.2693 141.434 50.056C140.132 49.8 139.055 49.5227 138.202 49.224C137.37 48.9253 136.634 48.4133 135.994 47.688C135.375 46.9627 135.066 45.96 135.066 44.68C135.066 43.5707 135.354 42.568 135.93 41.672C136.527 40.7547 137.402 40.04 138.554 39.528C139.706 38.9947 141.103 38.728 142.746 38.728C145.178 38.728 147.076 39.3253 148.442 40.52C149.828 41.7147 150.66 43.272 150.938 45.192H144.634C144.527 44.7013 144.303 44.328 143.962 44.072C143.62 43.7947 143.162 43.656 142.586 43.656C142.223 43.656 141.946 43.7307 141.754 43.88C141.562 44.008 141.466 44.2107 141.466 44.488C141.466 44.8507 141.69 45.128 142.138 45.32C142.586 45.4907 143.3 45.672 144.282 45.864C145.583 46.12 146.682 46.408 147.578 46.728C148.474 47.048 149.252 47.6027 149.914 48.392C150.575 49.16 150.906 50.2267 150.906 51.592C150.906 52.6587 150.596 53.6187 149.978 54.472C149.359 55.3253 148.463 55.9973 147.29 56.488C146.138 56.9787 144.783 57.224 143.226 57.224Z" fill="#6DCFF9"/>
</svg>
